<svg width="20" height="20" viewBox="0 0 20 20" fill="none" xmlns="http://www.w3.org/2000/svg">
    <rect x="1" y="1" width="18" height="18" rx="9" fill="#FAFAFA"/>
    <rect x="1" y="1" width="18" height="18" rx="9" stroke="#CE242B" stroke-width="1.22705" stroke-miterlimit="10"/>
    <path d="M9.90879 4.17643C9.96126 4.17643 10.0154 4.17643 10.0678 4.17643C10.24 4.23052 10.3236 4.36167 10.3974 4.5174C10.891 5.57965 11.3928 6.64026 11.888 7.70087C11.9175 7.7648 11.9535 7.80251 12.0273 7.81234C12.1962 7.83201 12.3651 7.85988 12.5324 7.88611C13.4933 8.03201 14.4541 8.18282 15.415 8.3238C15.6085 8.35167 15.7479 8.43035 15.8233 8.61395C15.8233 8.6828 15.8233 8.75001 15.8233 8.81886C15.7676 8.88771 15.7167 8.96312 15.6544 9.02705C14.8329 9.86636 14.0131 10.7073 13.1932 11.5483C13.1555 11.5876 13.1161 11.6187 13.1292 11.6909C13.2785 12.5761 13.4211 13.4613 13.5654 14.3465C13.6195 14.6793 13.6753 15.012 13.7277 15.3448C13.7589 15.5415 13.6982 15.6841 13.5539 15.7645C13.5162 15.7858 13.4752 15.8038 13.4359 15.8218C13.39 15.8218 13.344 15.8218 13.2998 15.8218C13.2342 15.7858 13.1686 15.7497 13.1046 15.7137C12.0995 15.1612 11.096 14.6071 10.0941 14.0498C10.0269 14.0121 9.97766 14.0121 9.90879 14.0498C9.48738 14.2875 9.06269 14.5219 8.638 14.7547C7.98538 15.1104 7.3426 15.4874 6.67851 15.8235C6.6326 15.8235 6.58668 15.8235 6.54241 15.8235C6.31449 15.7153 6.23742 15.5481 6.28005 15.2907C6.48174 14.1072 6.66703 12.922 6.86544 11.7384C6.8802 11.645 6.85396 11.5925 6.79493 11.5319C6.1292 10.8516 5.46346 10.1729 4.80101 9.48932C4.58784 9.26966 4.35664 9.06803 4.17627 8.81886C4.17627 8.74345 4.17627 8.66641 4.17627 8.591C4.25334 8.47297 4.33532 8.36478 4.4911 8.34183C5.64056 8.16807 6.78837 7.99102 7.93783 7.8189C8.02965 7.80579 8.08049 7.77136 8.12148 7.68448C8.60684 6.6419 9.09876 5.6026 9.58413 4.56002C9.65955 4.39773 9.73498 4.24692 9.90879 4.17643Z" fill="#CE242B"/>
</svg>
