<svg width="14" height="18" viewBox="0 0 14 18" fill="none" xmlns="http://www.w3.org/2000/svg">
    <path d="M0 3.1847C0 1.76372 1.146 0.600098 2.54544 0.600098H11.4546C12.854 0.600098 14 1.76372 14 3.1847V13.5232C14 14.8155 12.7273 14.8155 12.7273 14.8155V16.1078C12.7273 16.8192 12.1552 17.4001 11.4546 17.4001C10.7539 17.4001 10.1818 16.8192 10.1818 16.1078V14.8155H3.81819V16.1078C3.81819 16.8192 3.2461 17.4001 2.54544 17.4001C1.84479 17.4001 1.27274 16.8192 1.27274 16.1078V14.8155C1.44988e-05 14.8155 0 13.5232 0 13.5232V3.1847ZM1.91003 4.47702C1.55411 4.47702 1.27274 4.76082 1.27274 5.1241V9.00102C1.27274 9.36241 1.55225 9.64811 1.91003 9.64811H12.0918C12.4478 9.64811 12.7292 9.3643 12.7292 9.00102V5.1241C12.7292 4.76271 12.4496 4.47702 12.0918 4.47702H1.91003ZM2.54544 10.9385C1.84479 10.9385 1.27274 11.5194 1.27274 12.2309C1.27274 12.9423 1.84479 13.5232 2.54544 13.5232C3.2461 13.5232 3.81819 12.9423 3.81819 12.2309C3.81819 11.5194 3.2461 10.9385 2.54544 10.9385ZM11.4546 10.9385C10.7539 10.9385 10.1818 11.5194 10.1818 12.2309C10.1818 12.9423 10.7539 13.5232 11.4546 13.5232C12.1552 13.5232 12.7273 12.9423 12.7273 12.2309C12.7273 11.5194 12.1552 10.9385 11.4546 10.9385ZM2.54544 2.53761C2.54544 2.899 2.82499 3.1847 3.1809 3.1847H10.8173C11.1732 3.1847 11.4546 2.90089 11.4546 2.53761C11.4546 2.17433 11.1751 1.89237 10.8173 1.89237H3.1809C2.82685 1.89237 2.54544 2.17622 2.54544 2.53761Z" fill="black"/>
</svg>
