<svg width="16" height="21" viewBox="0 0 16 21" fill="none" xmlns="http://www.w3.org/2000/svg">
    <path d="M0 3.85373C0 2.22976 1.30971 0.899902 2.90908 0.899902H13.0909C14.6903 0.899902 16 2.22976 16 3.85373V15.6691C16 17.1461 14.5455 17.146 14.5455 17.146V18.623C14.5455 19.436 13.8917 20.0999 13.0909 20.0999C12.2902 20.0999 11.6364 19.436 11.6364 18.623V17.146H4.36364V18.623C4.36364 19.436 3.70982 20.0999 2.90908 20.0999C2.10833 20.0999 1.45456 19.436 1.45456 18.623V17.146C1.64986e-05 17.146 0 15.6691 0 15.6691V3.85373ZM2.18289 5.33067C1.77612 5.33067 1.45456 5.65501 1.45456 6.07019V10.501C1.45456 10.914 1.77399 11.2405 2.18289 11.2405H13.8192C14.226 11.2405 14.5476 10.9161 14.5476 10.501V6.07019C14.5476 5.65717 14.2281 5.33067 13.8192 5.33067H2.18289ZM2.90908 12.7153C2.10833 12.7153 1.45456 13.3791 1.45456 14.1922C1.45456 15.0053 2.10833 15.6691 2.90908 15.6691C3.70982 15.6691 4.36364 15.0053 4.36364 14.1922C4.36364 13.3791 3.70982 12.7153 2.90908 12.7153ZM13.0909 12.7153C12.2902 12.7153 11.6364 13.3791 11.6364 14.1922C11.6364 15.0053 12.2902 15.6691 13.0909 15.6691C13.8917 15.6691 14.5455 15.0053 14.5455 14.1922C14.5455 13.3791 13.8917 12.7153 13.0909 12.7153ZM2.90908 3.1142C2.90908 3.52722 3.22856 3.85373 3.63532 3.85373H12.3626C12.7694 3.85373 13.0909 3.52938 13.0909 3.1142C13.0909 2.69902 12.7715 2.37679 12.3626 2.37679H3.63532C3.23069 2.37679 2.90908 2.70118 2.90908 3.1142Z" fill="black"/>
</svg>
